Coordinates
version=1
nRows=26
nColumns=22
inDegrees=yes

Units are S.I. units (second, meters, Newtons, ...)
If the header above contains a line with 'inDegrees', this indicates whether rotational values are in degrees (yes) or radians (no).

endheader
time	pelvis_tilt	pelvis_list	pelvis_rotation	pelvis_tx	pelvis_ty	pelvis_tz	hip_flexion_r	hip_adduction_r	hip_rotation_r	knee_angle_r	ankle_angle_r	subtalar_angle_r	hip_flexion_l	hip_adduction_l	hip_rotation_l	knee_angle_l	ankle_angle_l	subtalar_angle_l	lumbar_extension	lumbar_bending	lumbar_rotation
      1.99000000	      0.33605389	     -3.04724989	     62.37975833	      0.91421458	      0.97263740	      0.66599151	     29.13592359	     -0.61789235	      3.50331827	    -16.39609749	      0.23363872	     18.57969808	    -16.13554930	      3.98042237	     11.35580307	    -14.63851715	     10.06490827	     -2.63711208	     -3.03884003	     -0.08882600	    -12.66706711
      2.00000000	      0.50815319	     -3.30775906	     62.88376249	      0.92017630	      0.97359458	      0.65518698	     29.03580213	     -0.37401024	      3.68490415	    -17.24249944	     -0.53966421	     17.93531086	    -15.81732663	      3.60406478	     11.14483264	    -16.02761064	      8.71767622	     -1.60866215	     -2.74329604	      0.38805257	    -12.51021836
      2.01000000	      0.71110967	     -3.54341297	     63.32829144	      0.92601868	      0.97479887	      0.64437618	     28.89187159	     -0.11920076	      3.77490394	    -18.09371342	     -1.12312249	     17.24965687	    -15.35799825	      3.25596705	     10.68379835	    -17.66758124	      7.19086191	     -0.55806306	     -2.49657377	      0.89938751	    -12.28343182
      2.02000000	      0.93559497	     -3.73999558	     63.71632221	      0.93174769	      0.97622945	      0.63361062	     28.68387783	      0.13330589	      3.77451898	    -18.92564839	     -1.48105490	     16.54900070	    -14.76149286	      2.93395044	      9.95951471	    -19.55338038	      5.48282177	      0.51963876	     -2.30880001	      1.42185170	    -11.98662023
      2.03000000	      1.17384888	     -3.88802379	     64.06477125	      0.93736612	      0.97786605	      0.62293695	     28.39685117	      0.36826441	      3.66163016	    -19.71696057	     -1.59673729	     15.82226744	    -14.03359534	      2.62377600	      8.99242526	    -21.67053232	      3.60472172	      1.66851585	     -2.18591661	      1.93085311	    -11.62691385
      2.04000000	      1.42792377	     -4.00703014	     64.37406087	      0.94290696	      0.97964133	      0.61246508	     28.02896063	      0.60949399	      3.51670105	    -20.41664683	     -1.53411731	     15.18390857	    -13.13576504	      2.28408062	      7.73370788	    -24.04606126	      1.62843361	      2.76599771	     -2.11315567	      2.42994133	    -11.23077949
      2.05000000	      1.69548516	     -4.10313248	     64.66446221	      0.94841992	      0.98151488	      0.60222826	     27.58112145	      0.85546980	      3.31344790	    -21.00920635	     -1.30887808	     14.60611830	    -12.07764787	      1.88036276	      6.24940214	    -26.65018448	     -0.40276613	      3.79855389	     -2.07998249	      2.90029722	    -10.79170328
      2.06000000	      1.98884026	     -4.17779153	     64.94972286	      0.95392119	      0.98345065	      0.59227352	     27.05110814	      1.12207201	      3.08113076	    -21.49098382	     -0.97543866	     14.15615750	    -10.87245128	      1.37167860	      4.57767217	    -29.46901672	     -2.41202629	      4.60491909	     -2.09254741	      3.34912917	    -10.33753306
      2.07000000	      2.26726896	     -4.25999482	     65.25677159	      0.95939430	      0.98535306	      0.58255708	     26.47691982	      1.36821400	      2.74105519	    -21.84262211	     -0.54696518	     13.64243013	     -9.49378571	      0.76611808	      2.82243367	    -32.47643220	     -4.27976860	      5.26273346	     -2.08833695	      3.74164496	     -9.87373406
      2.08000000	      2.59199441	     -4.32068773	     65.58968350	      0.96488209	      0.98728235	      0.57311063	     25.80430962	      1.65623779	      2.40390326	    -22.06703260	     -0.07201075	     13.30214023	     -8.02752975	      0.01172708	      1.05382020	    -35.62634944	     -5.98202071	      5.56429964	     -2.13437484	      4.12395625	     -9.43598733
      2.09000000	      2.90785413	     -4.41535510	     65.96689469	      0.97030704	      0.98905933	      0.56390717	     25.16161781	      1.93720255	      1.93770410	    -22.24691514	      0.40798916	     12.87763814	     -6.41104666	     -0.85992702	     -0.65519199	    -38.89147064	     -7.34944299	      5.48861319	     -2.14136334	      4.46679202	     -8.99037310
      2.10000000	      3.24724587	     -4.50328208	     66.39828440	      0.97565498	      0.99079445	      0.55486741	     24.45073194	      2.23684850	      1.47319072	    -22.31158011	      0.90460419	     12.50599860	     -4.74241419	     -1.83158297	     -2.19448239	    -42.17737602	     -8.39315149	      5.09222260	     -2.15912639	      4.79595655	     -8.59995420
      2.11000000	      3.58726179	     -4.56996891	     66.88317941	      0.98085123	      0.99246933	      0.54596941	     23.69761573	      2.52731586	      1.01622223	    -22.31382232	      1.42907301	     12.13855432	     -3.05036022	     -2.83136176	     -3.48606581	    -45.41503368	     -9.06445807	      4.39567792	     -2.19625825	      5.08811113	     -8.24107477
      2.12000000	      3.94373949	     -4.60695191	     67.40937086	      0.98587055	      0.99412759	      0.53712115	     22.87583172	      2.81884303	      0.55733002	    -22.23152429	      1.93858476	     11.85514236	     -1.38360568	     -3.85255827	     -4.57137939	    -48.51900080	     -9.26509730	      3.71592652	     -2.25846065	      5.37102875	     -7.90769393
      2.13000000	      4.30534713	     -4.60656006	     67.97205374	      0.99065053	      0.99576388	      0.52832636	     22.00645776	      3.10098817	      0.11323340	    -22.10590912	      2.42799048	     11.61875252	      0.24249136	     -4.83950197	     -5.42294259	    -51.43605075	     -8.99500315	      3.10482289	     -2.35534874	      5.63750337	     -7.57593942
      2.14000000	      4.66121971	     -4.55328347	     68.55486969	      0.99516344	      0.99741994	      0.51955055	     21.07755779	      3.36155159	     -0.30492240	    -21.93652998	      2.88917302	     11.43611835	      1.79738931	     -5.75270154	     -6.08466045	    -54.10472158	     -8.29635622	      2.63497252	     -2.49696667	      5.87990803	     -7.24316752
      2.15000000	      4.97755050	     -4.43564093	     69.15019102	      0.99939247	      0.99910912	      0.51078515	     20.08406243	      3.56877051	     -0.65893788	    -21.71281255	      3.34551750	     11.28933985	      3.26534903	     -6.53548291	     -6.58882164	    -56.47418304	     -7.23844050	      2.28903936	     -2.68103715	      6.06062355	     -6.91114735
      2.16000000	      5.24440364	     -4.28261962	     69.74522478	      1.00329797	      1.00079470	      0.50204099	     19.08093793	      3.71683536	     -1.01284551	    -21.47432919	      3.76365332	     11.12222186	      4.68105905	     -7.18647683	     -7.00172843	    -58.53474451	     -6.01417820	      2.02040202	     -2.87788221	      6.19548177	     -6.57332479
      2.17000000	      5.45189302	     -4.08351842	     70.33832151	      1.00689226	      1.00249871	      0.49332635	     18.05189340	      3.79639519	     -1.34176254	    -21.20928140	      4.15806771	     10.96524624	      6.02285839	     -7.67121483	     -7.31760434	    -60.26138036	     -4.65690536	      1.90086865	     -3.09671115	      6.26304936	     -6.22378911
      2.18000000	      5.57750770	     -3.86363359	     70.92820975	      1.01015617	      1.00418677	      0.48464880	     17.02280741	      3.79199961	     -1.65003422	    -20.90623303	      4.53273955	     10.75647795	      7.32207878	     -7.96655250	     -7.54882932	    -61.65331539	     -3.24537954	      2.02110082	     -3.30319069	      6.25551960	     -5.87612141
      2.19000000	      5.63866793	     -3.61366158	     71.53154733	      1.01304805	      1.00587004	      0.47602266	     15.98339823	      3.70533694	     -1.98527657	    -20.57764773	      4.88213798	     10.64010211	      8.56538103	     -8.08013084	     -7.69406901	    -62.71905415	     -1.85883298	      2.18680869	     -3.52190405	      6.19159046	     -5.55286763
      2.20000000	      5.60549022	     -3.35608425	     72.13087618	      1.01561002	      1.00748020	      0.46750282	     14.97895339	      3.52233521	     -2.31888908	    -20.24881277	      5.22093661	     10.50061528	      9.78493344	     -7.98696296	     -7.76726024	    -63.47660148	     -0.52796460	      2.53933196	     -3.72283004	      6.03990188	     -5.23622124
      2.21000000	      5.50749752	     -3.10002809	     72.74454615	      1.01785265	      1.00900529	      0.45904988	     13.99817890	      3.26347429	     -2.72443536	    -19.90839160	      5.56340456	     10.39117658	     10.97574207	     -7.73804450	     -7.79394311	    -63.93502302	      0.68527908	      2.88733215	     -3.90400051	      5.83527262	     -4.94653430
      2.22000000	      5.36082563	     -2.86467412	     73.35786683	      1.01981578	      1.01040121	      0.45074224	     13.05450679	      2.96418498	     -3.11612946	    -19.55281089	      5.87582741	     10.29304516	     12.16084682	     -7.36058665	     -7.77528645	    -64.12800023	      1.77182682	      3.37300027	     -4.06739709	      5.60077204	     -4.66285624
      2.23000000	      5.19412028	     -2.65567322	     73.98405369	      1.02156952	      1.01165218	      0.44251802	     12.13947411	      2.64841023	     -3.56791653	    -19.18296276	      6.18591119	     10.22336689	     13.32795262	     -6.92387930	     -7.75689093	    -64.06593633	      2.71446343	      3.86145719	     -4.20257613	      5.35681488	     -4.39685382
      2.24000000	      5.03321208	     -2.48270310	     74.61080639	      1.02318520	      1.01273297	      0.43442597	     11.25828692	      2.35550007	     -4.02603929	    -18.80413405	      6.47134522	     10.17963802	     14.48395610	     -6.48039220	     -7.75437342	    -63.77861324	      3.53492117	      4.41105506	     -4.31925858	      5.12738978	     -4.12311451
